<?xml version="1.0" standalone="no"?>
<!DOCTYPE svg PUBLIC "-//W3C//DTD SVG 20010904//EN"
 "http://www.w3.org/TR/2001/REC-SVG-20010904/DTD/svg10.dtd">
<svg version="1.0" xmlns="http://www.w3.org/2000/svg"
 width="256.000000pt" height="256.000000pt" viewBox="0 0 256.000000 256.000000"
 preserveAspectRatio="xMidYMid meet">
<metadata>
Created by potrace 1.11, written by Peter Selinger 2001-2013
</metadata>
<g transform="translate(0.000000,256.000000) scale(0.100000,-0.100000)"
fill="#000000" stroke="none">
<path d="M1240 2552 c-6 -2 -10 -76 -10 -203 l0 -199 121 0 120 0 -2 -675 c-1
-711 -4 -758 -48 -856 -29 -64 -92 -126 -159 -156 -56 -25 -63 -25 -337 -28
-154 -2 -282 -4 -285 -4 -3 -1 -5 -97 -5 -214 l0 -213 340 2 c377 2 418 7 565
72 190 83 337 317 376 597 4 28 7 462 8 965 l1 915 -337 0 c-186 0 -342 -1
-348 -3z"/>
</g>
</svg>
